<svg width="86" height="42" viewBox="0 0 86 42" fill="none" xmlns="http://www.w3.org/2000/svg">
    <path d="M43.9923 4.008C44.2483 3.112 44.6323 2.38666 45.1443 1.832C45.6563 1.23466 46.2109 0.935997 46.8083 0.935997C48.2589 0.935997 49.3043 1.21333 49.9443 1.768C50.5843 2.32266 50.9043 3.28267 50.9043 4.648C50.9043 5.032 50.6056 6.12 50.0083 7.912C48.6856 11.9653 47.2349 16.9787 45.6563 22.952C45.2723 24.3173 44.9523 25.512 44.6963 26.536C44.4829 27.56 44.2909 28.4133 44.1203 29.096C43.0963 33.4907 42.2003 36.7973 41.4323 39.016C41.1763 39.656 40.7283 40.168 40.0883 40.552C39.4483 40.8933 38.7656 41.064 38.0403 41.064C37.3149 41.064 36.5896 40.9147 35.8643 40.616C35.1816 40.2747 34.6909 39.8907 34.3923 39.464C33.0696 36.8613 31.4269 33.32 29.4643 28.84C27.5443 24.3173 26.0509 20.3707 24.9843 17C22.3389 23.6987 19.9709 30.1627 17.8803 36.392C17.7523 36.776 17.6029 37.2027 17.4323 37.672C17.3043 38.0987 17.1549 38.5467 16.9843 39.016C16.6856 39.656 16.2589 40.168 15.7043 40.552C15.1496 40.8933 14.5309 41.064 13.8483 41.064C13.0803 41.064 12.3336 40.9147 11.6083 40.616C10.8829 40.2747 10.3923 39.8907 10.1363 39.464C9.58158 38.5253 8.98425 37.0747 8.34425 35.112C7.74692 33.1493 6.93625 30.3973 5.91225 26.856L4.31225 21.416C3.20292 17.8747 2.24292 14.248 1.43225 10.536C0.621584 6.824 0.21625 4.60533 0.21625 3.88C0.21625 2.984 0.66425 2.28 1.56025 1.768C2.45625 1.21333 3.35225 0.935997 4.24825 0.935997C4.76025 0.935997 5.29358 1.10666 5.84825 1.448C6.40292 1.74667 6.76558 2.28 6.93625 3.048C8.42958 11.0267 10.6269 20.2853 13.5283 30.824C14.6376 28.1787 15.8536 24.9573 17.1763 21.16C18.5416 17.3627 19.8429 13.672 21.0803 10.088L21.7203 8.168C21.8909 7.528 22.3176 7.03733 23.0003 6.696C23.7256 6.312 24.4509 6.12 25.1763 6.12C26.1149 6.12 26.8829 6.35467 27.4803 6.824C28.0776 7.29333 28.4616 7.80533 28.6323 8.36C28.6749 8.53066 29.5283 11.0693 31.1923 15.976C32.8563 20.8827 34.8403 25.832 37.1443 30.824C37.9976 28.3067 39.0216 24.2747 40.2163 18.728L41.1763 14.504C42.3283 9.98133 43.2669 6.48266 43.9923 4.008Z"
          fill="#D4DBE2"/>
    <path d="M85.7503 29.992C85.7503 31.9973 85.3236 33.6187 84.4703 34.856C83.6169 36.0933 82.1449 37.3093 80.0543 38.504C78.6463 39.3573 77.0249 40.0187 75.1903 40.488C73.3556 40.9147 71.4996 41.128 69.6223 41.128C68.4703 41.128 67.1263 40.9147 65.5903 40.488C64.0969 40.0187 62.8809 39.5707 61.9423 39.144L60.8542 38.184C58.9343 36.6053 57.5903 35.3467 56.8223 34.408C56.0969 33.4267 55.7343 32.232 55.7343 30.824C55.7343 29.7147 55.9903 28.8827 56.5023 28.328C57.0143 27.7733 57.8463 27.496 58.9983 27.496C59.5956 27.496 60.1503 27.688 60.6623 28.072C61.1743 28.456 61.6223 28.9893 62.0063 29.672C63.0729 31.5493 64.3316 32.936 65.7823 33.832C67.2756 34.6853 69.0249 35.112 71.0303 35.112C72.9076 35.112 74.8063 34.536 76.7263 33.384C78.3049 32.4027 79.0943 31.4427 79.0943 30.504C79.0943 28.84 78.3476 27.4533 76.8543 26.344C75.4036 25.2347 73.3129 24.232 70.5823 23.336C68.9183 22.7387 66.4223 21.6293 63.0943 20.008C60.8329 18.8987 59.1476 17.5333 58.0383 15.912C56.9289 14.2907 56.3743 12.584 56.3743 10.792C56.3743 9.17066 56.9289 7.592 58.0383 6.056C59.1903 4.47733 60.5769 3.304 62.1983 2.536C63.0516 2.10933 64.4169 1.66133 66.2943 1.192C68.1716 0.679999 69.5796 0.424 70.5183 0.424C72.2676 0.424 73.7823 0.637333 75.0623 1.064C76.3423 1.448 77.6009 2.00267 78.8383 2.728C80.7156 3.79467 82.1023 4.75467 82.9983 5.608C83.8943 6.46133 84.3423 7.528 84.3423 8.808C84.3423 9.576 84.0436 10.2587 83.4463 10.856C82.8916 11.4533 81.9103 11.752 80.5023 11.752C80.1609 11.752 79.8196 11.6027 79.4783 11.304C79.1369 11.0053 78.7103 10.5573 78.1983 9.96C77.5156 9.064 76.8543 8.46666 76.2143 8.168C76.0436 8.12533 75.3396 7.848 74.1023 7.336C72.9076 6.824 71.4143 6.568 69.6223 6.568C67.9156 6.568 66.4009 6.97333 65.0783 7.784C63.7556 8.552 63.0943 9.68266 63.0943 11.176C63.0943 12.6693 64.4383 13.8853 67.1263 14.824C69.9849 15.9333 72.3529 16.8933 74.2303 17.704C76.1503 18.5147 78.0063 19.4747 79.7983 20.584C81.8463 21.8213 83.3396 23.1227 84.2783 24.488C85.2596 25.8533 85.7503 27.688 85.7503 29.992Z"
          fill="#7B7C81"/>
</svg>
