<svg width="440" height="87" viewBox="0 0 440 87" fill="none" xmlns="http://www.w3.org/2000/svg">
    <path d="M66.504 9.512C66.888 8.168 67.464 7.08 68.232 6.248C69 5.352 69.832 4.904 70.728 4.904C72.904 4.904 74.472 5.32 75.432 6.152C76.392 6.984 76.872 8.424 76.872 10.472C76.872 11.048 76.424 12.68 75.528 15.368C73.544 21.448 71.368 28.968 69 37.928C68.424 39.976 67.944 41.768 67.56 43.304C67.24 44.84 66.952 46.12 66.696 47.144C65.16 53.736 63.816 58.696 62.664 62.024C62.28 62.984 61.608 63.752 60.648 64.328C59.688 64.84 58.664 65.096 57.576 65.096C56.488 65.096 55.4 64.872 54.312 64.424C53.288 63.912 52.552 63.336 52.104 62.696C50.12 58.792 47.656 53.48 44.712 46.76C41.832 39.976 39.592 34.056 37.992 29C34.024 39.048 30.472 48.744 27.336 58.088C27.144 58.664 26.92 59.304 26.664 60.008C26.472 60.648 26.248 61.32 25.992 62.024C25.544 62.984 24.904 63.752 24.072 64.328C23.24 64.84 22.312 65.096 21.288 65.096C20.136 65.096 19.016 64.872 17.928 64.424C16.84 63.912 16.104 63.336 15.72 62.696C14.888 61.288 13.992 59.112 13.032 56.168C12.136 53.224 10.92 49.096 9.384 43.784L6.984 35.624C5.32 30.312 3.88 24.872 2.664 19.304C1.448 13.736 0.84 10.408 0.84 9.32C0.84 7.976 1.512 6.92 2.856 6.152C4.2 5.32 5.544 4.904 6.888 4.904C7.656 4.904 8.456 5.16 9.288 5.672C10.12 6.12 10.664 6.92 10.92 8.07199C13.16 20.04 16.456 33.928 20.808 49.736C22.472 45.768 24.296 40.936 26.28 35.24C28.328 29.544 30.28 24.008 32.136 18.632L33.096 15.752C33.352 14.792 33.992 14.056 35.016 13.544C36.104 12.968 37.192 12.68 38.28 12.68C39.688 12.68 40.84 13.032 41.736 13.736C42.632 14.44 43.208 15.208 43.464 16.04C43.528 16.296 44.808 20.104 47.304 27.464C49.8 34.824 52.776 42.248 56.232 49.736C57.512 45.96 59.048 39.912 60.84 31.592L62.28 25.256C64.008 18.472 65.416 13.224 66.504 9.512ZM71.5238 44.648C71.5238 42.216 71.9718 39.784 72.8678 37.352C73.7638 34.856 74.9478 32.584 76.4198 30.536C77.8918 28.488 80.2278 26.824 83.4278 25.544C86.6278 24.2 89.4758 23.528 91.9718 23.528C94.5318 23.528 97.1238 23.88 99.7478 24.584C102.436 25.288 104.292 26.376 105.316 27.848C107.684 31.176 108.868 34.44 108.868 37.64C108.868 39.368 108.484 40.84 107.716 42.056C107.012 43.272 105.988 44.584 104.644 45.992C103.556 47.144 101.828 47.912 99.4598 48.296C97.1558 48.68 94.8518 48.872 92.5478 48.872C91.0758 48.872 89.2838 48.744 87.1718 48.488C85.0598 48.168 83.0118 47.784 81.0278 47.336C81.1558 48.616 81.4758 49.864 81.9878 51.08C82.4998 52.296 83.1078 53.224 83.8118 53.864C85.0918 55.08 86.4038 55.848 87.7478 56.168C89.1558 56.488 90.9478 56.648 93.1238 56.648C95.4278 56.648 97.5718 56.264 99.5558 55.496C101.156 54.92 102.468 54.632 103.492 54.632C104.708 54.632 105.636 55.016 106.276 55.784C106.916 56.488 107.236 57.416 107.236 58.568C107.236 60.168 106.308 61.48 104.452 62.504C102.596 63.528 100.452 64.296 98.0198 64.808C95.6518 65.256 93.7318 65.48 92.2598 65.48C89.2518 65.48 86.3398 64.936 83.5238 63.848C80.7078 62.76 78.3718 61.224 76.5158 59.24C74.9798 57.448 73.7638 55.304 72.8678 52.808C71.9718 50.248 71.5238 47.528 71.5238 44.648ZM92.4518 31.688C91.0438 31.688 89.6358 31.976 88.2278 32.552C86.8198 33.064 85.6678 33.8 84.7718 34.76C83.6198 35.976 82.8198 36.968 82.3718 37.736C81.9878 38.44 81.7318 39.432 81.6038 40.712C83.2038 41.224 86.5318 41.48 91.5878 41.48C94.3398 41.48 96.4518 41.064 97.9238 40.232C99.4598 39.4 100.228 38.312 100.228 36.968C100.228 35.624 99.3958 34.408 97.7318 33.32C96.0678 32.232 94.3078 31.688 92.4518 31.688ZM145.882 65.384C143.706 65.384 142.042 65.064 140.89 64.424C139.738 63.72 138.49 62.44 137.146 60.584C135.482 62.056 132.986 63.24 129.658 64.136C126.394 65.032 123.578 65.48 121.21 65.48C117.306 65.48 114.138 64.424 111.706 62.312C109.338 60.136 108.154 56.968 108.154 52.808C108.154 51.016 108.634 49.384 109.594 47.912C110.618 46.376 111.93 45.032 113.53 43.88C115.322 42.664 117.434 41.704 119.866 41C122.362 40.296 124.634 39.944 126.682 39.944C130.138 39.944 133.21 40.264 135.898 40.904V40.808C135.898 37.352 135.034 34.984 133.306 33.704C131.642 32.36 128.954 31.688 125.242 31.688C122.874 31.688 120.826 32.744 119.098 34.856C118.458 35.688 117.114 36.104 115.066 36.104C114.042 36.104 113.274 35.688 112.762 34.856C112.314 33.96 112.09 33.064 112.09 32.168C112.09 30.312 112.858 28.712 114.394 27.368C115.994 26.024 117.914 25.032 120.154 24.392C122.394 23.688 124.474 23.336 126.394 23.336C128.25 23.336 130.458 23.72 133.018 24.488C135.578 25.256 137.658 26.28 139.258 27.56C141.178 29.224 142.65 31.176 143.674 33.416C144.762 35.592 145.306 37.992 145.306 40.616C145.306 41.448 145.242 42.696 145.114 44.36C144.986 46.28 144.922 47.848 144.922 49.064C144.922 49.64 144.858 50.376 144.73 51.272C144.602 52.424 144.538 53.384 144.538 54.152C144.538 54.984 144.794 55.784 145.306 56.552C145.818 57.32 146.522 57.96 147.418 58.472C148.25 58.92 148.794 59.4 149.05 59.912C149.306 60.424 149.434 61 149.434 61.64C149.434 62.28 149.018 63.08 148.186 64.04C147.418 64.936 146.65 65.384 145.882 65.384ZM126.682 47.048C124.186 47.048 121.978 47.528 120.058 48.488C118.138 49.448 117.178 51.144 117.178 53.576C117.178 54.792 117.594 55.816 118.426 56.648C119.322 57.48 120.282 57.896 121.306 57.896C124.058 57.896 126.362 57.608 128.218 57.032C130.074 56.456 132.314 55.4 134.938 53.864C135.258 52.84 135.45 51.4 135.514 49.544C135.514 48.84 135.546 48.296 135.61 47.912C132.154 47.336 129.178 47.048 126.682 47.048ZM148.012 31.784C147.116 31.656 146.38 31.272 145.804 30.632C145.292 29.992 145.036 29.224 145.036 28.328C145.036 27.88 145.132 27.4 145.324 26.888C145.58 26.376 145.932 25.928 146.38 25.544C147.212 24.712 149.452 24.296 153.1 24.296C153.612 21.8 153.868 19.272 153.868 16.712C153.868 15.752 153.836 14.92 153.772 14.216C153.708 13.512 153.676 12.968 153.676 12.584C153.676 11.176 154.188 10.12 155.212 9.41599C156.3 8.712 157.516 8.36 158.86 8.36C160.524 8.36 161.644 8.776 162.22 9.608C162.86 10.44 163.18 11.976 163.18 14.216C163.18 17.544 162.892 20.808 162.316 24.008C163.34 24.008 164.748 23.944 166.54 23.816C168.972 23.688 170.732 23.624 171.82 23.624C172.908 23.624 173.836 23.912 174.604 24.488C175.436 25 175.852 25.736 175.852 26.696C175.852 29.192 174.732 30.664 172.492 31.112C170.124 31.688 166.444 32.04 161.452 32.168C161.26 34.664 161.164 37.384 161.164 40.328C161.164 44.936 161.452 48.712 162.028 51.656C162.412 53.704 163.052 55.208 163.948 56.168C164.908 57.064 166.316 57.512 168.172 57.512C169.26 57.512 170.38 57.224 171.532 56.648C172.3 56.2 173.004 55.976 173.644 55.976C174.54 55.976 175.18 56.264 175.564 56.84C176.012 57.416 176.236 58.184 176.236 59.144C176.236 60.936 175.276 62.44 173.356 63.656C171.436 64.808 168.972 65.384 165.964 65.384C164.108 65.384 162.22 64.936 160.3 64.04C158.444 63.144 156.876 62.024 155.596 60.68C155.404 60.488 155.052 59.752 154.54 58.472C154.028 57.192 153.58 55.816 153.196 54.344C152.556 51.336 152.236 47.112 152.236 41.672C152.236 39.304 152.364 36.136 152.62 32.168L148.012 31.784ZM214.634 65.288C209.834 65.288 206.602 63.432 204.938 59.72C204.106 57.864 203.562 55.464 203.306 52.52C203.05 49.512 202.922 45.992 202.922 41.96V38.984C202.922 34.376 201.386 32.072 198.314 32.072C196.522 32.072 194.73 33 192.938 34.856C191.146 36.648 189.642 39.048 188.426 42.056C187.274 45 186.698 48.072 186.698 51.272C186.698 53.384 186.794 55.304 186.986 57.032C187.114 59.208 187.178 60.872 187.178 62.024C187.178 64.2 185.674 65.288 182.666 65.288C181.194 65.288 179.882 64.968 178.73 64.328C177.642 63.688 177.098 62.856 177.098 61.832C177.354 58.568 177.482 54.536 177.482 49.736L177.386 37.064C177.386 35.016 177.226 27.432 176.906 14.312L176.618 5.48C176.618 4.072 177.258 2.856 178.538 1.832C179.818 0.743998 181.258 0.199999 182.858 0.199999C184.266 0.199999 185.29 0.519999 185.93 1.16C186.57 1.8 186.89 2.792 186.89 4.136C186.89 5.8 186.858 7.752 186.794 9.992C186.73 12.168 186.666 13.832 186.602 14.984C186.41 18.248 186.314 21.512 186.314 24.776C186.314 27.976 186.25 30.504 186.122 32.36C188.042 29.544 190.218 27.464 192.65 26.12C195.146 24.712 198.058 24.008 201.386 24.008C203.818 24.008 206.058 25.096 208.106 27.272C210.218 29.384 211.498 31.816 211.946 34.568C212.074 35.976 212.138 38.056 212.138 40.808L212.042 47.816C212.042 48.904 212.106 50.6 212.234 52.904C212.298 53.992 212.65 55.144 213.29 56.36C213.994 57.576 214.794 58.472 215.69 59.048C216.522 59.56 217.066 60.072 217.322 60.584C217.578 61.096 217.706 61.672 217.706 62.312C217.706 62.952 217.418 63.624 216.842 64.328C216.266 64.968 215.53 65.288 214.634 65.288ZM215.089 43.304C215.089 41 215.505 38.856 216.337 36.872C217.169 34.824 218.385 32.712 219.985 30.536C221.585 28.36 223.793 26.664 226.609 25.448C229.425 24.168 232.497 23.528 235.825 23.528C238.385 23.528 240.849 24.072 243.217 25.16C245.649 26.184 247.825 27.464 249.745 29C250.001 29.448 250.449 30.28 251.089 31.496C251.729 32.648 252.177 33.704 252.433 34.664C252.753 35.624 252.913 36.616 252.913 37.64C252.913 41.928 251.345 44.808 248.209 46.28C245.073 47.688 241.105 48.392 236.305 48.392C231.505 48.392 227.601 48.072 224.593 47.432C224.721 48.648 225.041 49.864 225.553 51.08C226.065 52.296 226.673 53.224 227.377 53.864C228.657 55.08 229.905 55.88 231.121 56.264C232.401 56.584 234.097 56.744 236.209 56.744C239.409 56.744 241.905 56.136 243.697 54.92C245.361 53.832 246.641 53.288 247.537 53.288C248.753 53.288 249.681 53.672 250.321 54.44C250.961 55.144 251.281 56.072 251.281 57.224C251.281 59.656 249.713 61.64 246.577 63.176C243.505 64.712 240.017 65.48 236.113 65.48C233.041 65.48 230.001 64.936 226.993 63.848C223.985 62.76 221.585 61.224 219.793 59.24C218.577 57.192 217.489 54.696 216.529 51.752C215.569 48.808 215.089 45.992 215.089 43.304ZM236.209 31.4C234.801 31.4 233.329 31.656 231.793 32.168C230.321 32.616 229.169 33.32 228.337 34.28C227.313 35.368 226.545 36.36 226.033 37.256C225.585 38.152 225.297 39.272 225.169 40.616C225.873 40.616 226.545 40.648 227.185 40.712C227.825 40.776 228.433 40.84 229.009 40.904C231.825 41.16 233.937 41.288 235.345 41.288C238.161 41.288 240.305 40.872 241.777 40.04C243.313 39.208 244.081 38.088 244.081 36.68C244.081 35.336 243.217 34.12 241.489 33.032C239.825 31.944 238.065 31.4 236.209 31.4ZM266.873 61.16C266.745 62.248 266.297 63.208 265.529 64.04C264.761 64.872 263.769 65.288 262.553 65.288C260.633 65.288 259.225 64.936 258.329 64.232C257.433 63.464 256.985 62.088 256.985 60.104C256.985 57.416 257.145 54.472 257.465 51.272C257.721 47.56 257.849 44.712 257.849 42.728C257.849 41.704 257.785 40.424 257.657 38.888C257.529 37.48 257.465 36.424 257.465 35.72C257.273 34.632 256.825 33.768 256.121 33.128C255.481 32.488 254.457 31.944 253.049 31.496C252.473 31.24 251.993 30.824 251.609 30.248C251.225 29.608 251.033 29.032 251.033 28.52C251.033 27.048 251.609 25.928 252.761 25.16C253.913 24.392 255.321 24.008 256.985 24.008C258.841 24.008 260.441 24.648 261.785 25.928C263.129 27.208 264.153 28.808 264.857 30.728C266.329 28.616 268.121 26.92 270.233 25.64C272.409 24.36 274.521 23.72 276.569 23.72C279.193 23.72 281.401 24.168 283.193 25.064C285.049 25.896 285.977 27.368 285.977 29.48C285.977 30.696 285.433 31.976 284.345 33.32C283.321 34.6 282.265 35.24 281.177 35.24C280.345 35.24 279.353 34.856 278.201 34.088C277.753 33.768 277.241 33.512 276.665 33.32C276.153 33.064 275.609 32.936 275.033 32.936C274.009 32.936 273.049 33.096 272.153 33.416C271.257 33.736 270.649 34.12 270.329 34.568C269.305 36.168 268.537 37.608 268.025 38.888C267.577 40.168 267.353 41.544 267.353 43.016C267.353 44.104 267.321 44.968 267.257 45.608L267.161 51.08L267.257 54.728C267.257 57.416 267.129 59.56 266.873 61.16Z"
          fill="#0047FF"/>
    <path d="M327.973 47.624C327.973 50.632 327.269 53.224 325.861 55.4C324.517 57.512 322.277 59.464 319.141 61.256C317.029 62.536 314.565 63.496 311.749 64.136C308.933 64.776 306.085 65.096 303.205 65.096C300.261 65.096 296.613 64.136 292.261 62.216C289.125 60.68 286.629 58.856 284.773 56.744C282.981 54.632 282.085 52.328 282.085 49.832C282.085 48.104 282.469 46.856 283.237 46.088C284.005 45.256 285.253 44.84 286.981 44.84C287.877 44.84 288.805 45.224 289.765 45.992C290.725 46.696 291.301 47.4 291.493 48.104C292.389 50.728 293.957 52.744 296.197 54.152C298.437 55.496 301.221 56.168 304.549 56.168C308.389 56.168 311.589 55.464 314.149 54.056C316.773 52.648 318.085 50.76 318.085 48.392C318.085 46.088 316.677 44.04 313.861 42.248C311.045 40.456 308.165 39.208 305.221 38.504C300.997 37.352 297.253 35.976 293.989 34.376C290.597 32.712 288.069 30.664 286.405 28.232C284.741 25.8 283.909 23.24 283.909 20.552C283.909 18.056 284.773 15.528 286.501 12.968C288.229 10.344 290.277 8.456 292.645 7.304C293.925 6.664 296.101 5.992 299.173 5.288C302.309 4.52 304.581 4.136 305.989 4.136C307.845 4.136 309.893 4.36 312.133 4.808C314.373 5.256 316.197 5.896 317.605 6.72799C320.421 8.328 322.501 9.768 323.845 11.048C325.189 12.328 325.861 13.928 325.861 15.848C325.861 17 325.413 18.024 324.517 18.92C323.685 19.816 322.213 20.264 320.101 20.264C319.589 20.264 319.077 20.04 318.565 19.592C318.053 19.144 317.413 18.472 316.645 17.576C315.621 16.232 314.629 15.336 313.669 14.888C312.709 14.568 311.301 14.216 309.445 13.832C307.653 13.448 306.053 13.256 304.645 13.256C303.109 13.256 301.509 13.576 299.845 14.216C298.181 14.856 296.773 15.784 295.621 17C294.533 18.152 293.989 19.496 293.989 21.032C293.989 22.312 294.565 23.432 295.717 24.392C296.933 25.288 298.373 26.024 300.037 26.6C301.957 27.368 304.037 28.04 306.277 28.616C309.221 29.512 311.621 30.344 313.477 31.112C315.397 31.816 317.253 32.712 319.045 33.8C322.181 35.656 324.453 37.576 325.861 39.56C327.269 41.48 327.973 44.168 327.973 47.624ZM330.52 31.592C329.944 31.592 329.4 31.656 328.888 31.784C328.376 31.848 327.864 31.88 327.352 31.88C326.648 31.88 325.976 31.56 325.336 30.92C324.76 30.28 324.472 29.704 324.472 29.192C324.472 27.528 325.304 26.248 326.968 25.352C328.632 24.392 330.328 23.912 332.056 23.912C333.528 23.912 335.032 24.424 336.568 25.448C338.168 26.408 339.352 27.656 340.12 29.192C341.784 27.208 343.832 25.768 346.264 24.872C348.696 23.976 351.224 23.528 353.848 23.528C356.792 23.528 359.512 24.456 362.008 26.312C364.568 28.168 366.584 30.536 368.056 33.416C369.528 36.232 370.264 39.048 370.264 41.864C370.264 44.616 369.976 47.08 369.4 49.256C368.824 51.368 367.8 53.512 366.328 55.688C364.664 57.992 362.424 59.88 359.608 61.352C356.856 62.824 353.56 63.56 349.72 63.56C348.696 63.56 347.448 63.304 345.976 62.792C344.504 62.216 343.288 61.608 342.328 60.968C341.88 65.32 341.656 69.096 341.656 72.296C341.656 74.216 341.752 76.04 341.944 77.768C342.072 79.816 342.136 81.288 342.136 82.184C342.136 83.592 341.656 84.616 340.696 85.256C339.736 85.96 338.68 86.312 337.528 86.312C335.224 86.312 333.688 85.672 332.92 84.392C332.216 83.176 331.864 81.416 331.864 79.112C332.12 73.608 332.44 68.52 332.824 63.848C333.208 58.088 333.4 49.192 333.4 37.16C333.4 36.008 333.176 34.792 332.728 33.512C332.28 32.232 331.544 31.592 330.52 31.592ZM342.712 51.464C343.032 52.68 343.928 53.704 345.4 54.536C346.936 55.304 348.312 55.688 349.528 55.688C353.176 55.688 355.896 54.696 357.688 52.712C359.032 51.304 359.896 49.928 360.28 48.584C360.728 47.24 360.952 45.096 360.952 42.152C360.952 39.848 360.504 37.928 359.608 36.392C358.712 34.792 357.624 33.64 356.344 32.936C355.064 32.168 353.848 31.784 352.696 31.784C350.072 31.784 347.928 32.584 346.264 34.184C344.664 35.72 343.64 37.832 343.192 40.52C342.872 42.632 342.712 46.28 342.712 51.464ZM408.5 34.184C409.012 35.08 409.428 36.392 409.748 38.12C410.068 39.784 410.228 41.288 410.228 42.632C410.228 45.128 409.684 48.68 408.596 53.288C404.18 61.352 397.652 65.384 389.012 65.384C385.812 65.384 382.548 64.328 379.22 62.216C375.892 60.104 373.588 57.672 372.308 54.92C370.58 49.416 369.716 45.928 369.716 44.456C369.716 41.896 370.26 39.176 371.348 36.296C372.5 33.416 373.94 30.92 375.668 28.808C376.756 27.336 378.708 26.088 381.524 25.064C384.34 23.976 386.9 23.432 389.204 23.432C393.684 23.432 397.492 24.296 400.628 26.024C403.764 27.688 406.388 30.408 408.5 34.184ZM400.148 49.64C400.468 48.808 400.628 46.664 400.628 43.208C400.628 41.352 400.276 39.528 399.572 37.736C398.932 35.944 397.972 34.408 396.692 33.128C396.564 33 396.212 32.808 395.636 32.552C395.06 32.232 394.26 31.944 393.236 31.688C392.276 31.368 391.156 31.208 389.876 31.208C386.292 31.208 383.668 32.648 382.004 35.528C380.34 38.408 379.508 41.672 379.508 45.32C379.508 45.96 379.668 47.176 379.988 48.968C380.372 50.76 380.692 51.88 380.948 52.328C381.14 52.776 381.62 53.416 382.388 54.248C383.22 55.016 384.212 55.72 385.364 56.36C386.58 56.936 387.828 57.224 389.108 57.224C391.988 57.224 394.292 56.552 396.02 55.208C397.748 53.8 399.124 51.944 400.148 49.64ZM410.969 31.592C410.073 31.464 409.337 31.112 408.761 30.536C408.249 29.896 407.993 29.128 407.993 28.232C407.993 27.08 408.441 26.12 409.337 25.352C409.529 25.16 409.849 25 410.297 24.872C410.745 24.68 411.097 24.52 411.353 24.392C412.761 23.944 413.657 23.592 414.041 23.336C415.513 22.44 416.505 20.968 417.017 18.92C417.529 16.488 417.849 14.824 417.977 13.928C418.105 12.52 418.553 11.464 419.321 10.76C420.153 9.992 421.177 9.608 422.393 9.608C423.993 9.608 425.113 10.024 425.753 10.856C426.393 11.688 426.713 13.224 426.713 15.464C426.713 18.408 426.009 21.192 424.601 23.816C425.497 23.816 426.969 23.752 429.017 23.624C432.089 23.496 434.233 23.432 435.449 23.432C436.537 23.432 437.465 23.72 438.233 24.296C439.065 24.808 439.481 25.576 439.481 26.6C439.481 29.032 438.361 30.472 436.121 30.92C434.073 31.496 430.361 31.848 424.985 31.976C424.537 38.248 424.313 43.208 424.313 46.856C424.313 49.096 424.409 50.696 424.601 51.656C424.985 53.64 425.625 55.112 426.521 56.072C427.481 56.968 428.889 57.416 430.745 57.416C431.641 57.416 432.985 57.192 434.777 56.744C435.865 56.424 436.729 56.264 437.369 56.264C438.201 56.264 438.841 56.552 439.289 57.128C439.737 57.704 439.961 58.472 439.961 59.432C439.961 61.16 438.841 62.6 436.601 63.752C434.361 64.84 431.705 65.384 428.633 65.384C426.713 65.384 424.825 64.936 422.969 64.04C421.113 63.08 419.545 61.928 418.265 60.584C418.009 60.456 417.625 59.752 417.113 58.472C416.665 57.192 416.217 55.784 415.769 54.248C415.577 53.48 415.481 51.624 415.481 48.68C415.481 45.864 415.673 41 416.057 34.088L416.153 31.976C415.705 31.976 414.873 31.944 413.657 31.88C412.441 31.752 411.545 31.656 410.969 31.592Z"
          fill="#FF0000"/>
</svg>
